<!-- Simple SVG icon for MedAI -->
<svg width="512" height="512" viewBox="0 0 512 512" fill="none" xmlns="http://www.w3.org/2000/svg">
  <!-- Background gradient -->
  <defs>
    <linearGradient id="bg" x1="0%" y1="0%" x2="100%" y2="100%">
      <stop offset="0%" style="stop-color:#3b82f6;stop-opacity:1" />
      <stop offset="100%" style="stop-color:#8b5cf6;stop-opacity:1" />
    </linearGradient>
  </defs>
  
  <!-- Background -->
  <rect width="512" height="512" rx="64" fill="url(#bg)"/>
  
  <!-- Stethoscope icon -->
  <g transform="translate(126, 126) scale(2)">
    <path d="M11 2a2 2 0 0 1 2 2v6h-2V4a2 2 0 0 1 2-2zM8 2a2 2 0 0 1 2 2v6h-2V4a2 2 0 0 1-2-2z" fill="white"/>
    <path d="M9 12a1 1 0 1 0 2 0a1 1 0 0 0-2 0z" fill="white"/>
    <path d="M7 14a2 2 0 1 1 4 0a2 2 0 0 1-4 0z" fill="white"/>
    <path d="M4.5 6.5a.5.5 0 0 1 .5-.5h6a.5.5 0 0 1 0 1H5a.5.5 0 0 1-.5-.5z" fill="white"/>
  </g>
  
  <!-- AI text -->
  <text x="256" y="400" font-family="Arial, sans-serif" font-size="48" font-weight="bold" text-anchor="middle" fill="white">AI</text>
</svg>
